# xmcd
#
# Track frame offsets: 
#        150
#        6922
#        15977
#        24566
#        33051
#        43308
#        44045
#        53783
#        64160
#        65086
#        65784
#        66411
#        75603
#        85159
#        95765
#        97026
#        99244
#        101649
#        105604
#        107896
#        112152
#        114550
#        124483
#        125981
#        128199
#        129195
#        130871
#        131666
#        133296
#        139380
#        152438
#        160466
#        171765
#        177225
#        184909
#        195084
#        206745
#        217491
#        226573
#        236432
#        239216
#        241261
#        252556
#        257712
#        258899
#        270297
#        270757
#        272401
#        284280
#        285480
#        292737
#        305026
#        317587
#        319501
#        323468
#        334936
#        335322
#        335845
#        337003
#        339580
#        340177
#        341062
#        342328
#        347201
#
# Disc length: 4764 seconds
#
# Revision: 0
# Processed by: cddbd v1.5.2PL0 Copyright (c) Steve Scherf et al.
# Submitted via: ExactAudioCopy v0.95b3
#
DISCID=e3129a40
DTITLE=The Beatles  - With The Beatles - Deluxe - Sessions - Disc 3  F
DTITLE=LAC
DYEAR=1900
DGENRE=
TTITLE0=From Me To You - take 1
TTITLE1=From Me To You - take 2
TTITLE2=From Me To You - take 3
TTITLE3=From Me To You - take 4
TTITLE4=From Me To You - take 5
TTITLE5=From Me To You - take 6
TTITLE6=From Me To You - take 7
TTITLE7=Thank You Girl - take 1
TTITLE8=Thank You Girl - take 2a
TTITLE9=Thank You Girl - take 2b
TTITLE10=Thank You Girl - take 3
TTITLE11=Thank You Girl - take 4
TTITLE12=Thank You Girl - take 5
TTITLE13=Thank You Girl - take 6
TTITLE14=Thank You Girl - take 7
TTITLE15=Thank You Girl - take 8
TTITLE16=Thank You Girl - take 9
TTITLE17=Thank You Girl - take 10
TTITLE18=Thank You Girl - take 11
TTITLE19=Thank You Girl - take 12
TTITLE20=Thank You Girl - take 13
TTITLE21=From Me To You - final edit
TTITLE22=From Me To You - take 8
TTITLE23=From Me To You - take 9
TTITLE24=From Me To You - take 10
TTITLE25=From Me To You - take 11
TTITLE26=From Me To You - take 12
TTITLE27=From Me To You - take 13
TTITLE28=One After 909 - take 1
TTITLE29=One After 909 - take 2
TTITLE30=One After 909 - take 3
TTITLE31=One After 909 - take 4
TTITLE32=One After 909 - take 5
TTITLE33=Piano-Drum Instrumental
TTITLE34=Please Mr Postman - take 3
TTITLE35=Please Mr Postman - take 9
TTITLE36=It Won't Be Long - take 7
TTITLE37=It Won't Be Long - take 10
TTITLE38=Messages To Australia
TTITLE39=Hold Me Tight - rehearsal
TTITLE40=Hold Me Tight - take 20
TTITLE41=Hold Me Tight - take 21 (called as 23)
TTITLE42=Hold Me Tight - take 22
TTITLE43=Hold Me Tight - take 23
TTITLE44=Hold Me Tight - take 24
TTITLE45=Hold Me Tight - rehearsal
TTITLE46=Hold Me Tight - take 25
TTITLE47=Hold Me Tight - take 26 and fragment
TTITLE48=Hold Me Tight - take 27
TTITLE49=Hold Me Tight - take 28
TTITLE50=Hold Me Tight - take 29
TTITLE51=Don't Bother Me - take 10
TTITLE52=Don't Bother Me - take 11
TTITLE53=Don't Bother Me - take 12
TTITLE54=Don't Bother Me - take 13
TTITLE55=I Want To Hold Your Hand - take 1
TTITLE56=I Want To Hold Your Hand - take 2
TTITLE57=I Want To Hold Your Hand - take 4
TTITLE58=I Want To Hold Your Hand - take 9
TTITLE59=I Want To Hold Your Hand - take x
TTITLE60=I Want To Hold Your Hand - take y
TTITLE61=This Boy - take 4
TTITLE62=This Boy - take 12
TTITLE63=This Boy - take 13
EXTD=
EXTT0=
EXTT1=
EXTT2=
EXTT3=
EXTT4=
EXTT5=
EXTT6=
EXTT7=
EXTT8=
EXTT9=
EXTT10=
EXTT11=
EXTT12=
EXTT13=
EXTT14=
EXTT15=
EXTT16=
EXTT17=
EXTT18=
EXTT19=
EXTT20=
EXTT21=
EXTT22=
EXTT23=
EXTT24=
EXTT25=
EXTT26=
EXTT27=
EXTT28=
EXTT29=
EXTT30=
EXTT31=
EXTT32=
EXTT33=
EXTT34=
EXTT35=
EXTT36=
EXTT37=
EXTT38=
EXTT39=
EXTT40=
EXTT41=
EXTT42=
EXTT43=
EXTT44=
EXTT45=
EXTT46=
EXTT47=
EXTT48=
EXTT49=
EXTT50=
EXTT51=
EXTT52=
EXTT53=
EXTT54=
EXTT55=
EXTT56=
EXTT57=
EXTT58=
EXTT59=
EXTT60=
EXTT61=
EXTT62=
EXTT63=
PLAYORDER=
